<svg xmlns="http://www.w3.org/2000/svg" width="100.217" height="64" viewBox="0 0 100.217 64">
  <g id="Air-1" transform="translate(18337 -1347)">
    <g id="矩形_577" data-name="矩形 577" transform="translate(-18337 1347)" fill="#fff" stroke="#1d86db" stroke-width="1">
      <rect width="100" height="64" rx="4" stroke="none"/>
      <rect x="0.5" y="0.5" width="99" height="63" rx="3.5" fill="none"/>
    </g>
    <path id="路径_633" data-name="路径 633" d="M5.4-2.2H2.191L1.43,0H.252L3.328-8.531h.99L7.33,0H6.152ZM2.525-3.164H5.074L3.832-6.826H3.8ZM9.974,0H8.82V-6.34H9.974Zm0-7.963H8.82V-9.141H9.974ZM15.049-5.32l-.592-.035a1.322,1.322,0,0,0-.771.217,1.391,1.391,0,0,0-.483.609V0H12.049V-6.34H13.08l.111.926a2.2,2.2,0,0,1,.665-.768,1.555,1.555,0,0,1,.911-.275,1.426,1.426,0,0,1,.246.021,1.631,1.631,0,0,1,.193.044Z" transform="translate(-18294 1398)" fill="#1d86db"/>
    <path id="Air-1-2" data-name="Air-1" d="M96.374,103.691a.512.512,0,0,1-.49-.363L92.99,93.883,89.534,96.82l.042,5.107a.514.514,0,0,1-.147.364l-.856.873a.512.512,0,0,1-.843-.175l-1.852-4.8-4.97-2.141a.515.515,0,0,1-.165-.83l.852-.876a.512.512,0,0,1,.392-.155l5.213.256,2.936-3.612-9.485-3.021a.514.514,0,0,1-.211-.849l1.628-1.667a.513.513,0,0,1,.417-.152l11.7,1.181L97.5,82.993a4.577,4.577,0,0,1,3.222-1.549h.009a2.018,2.018,0,0,1,1.4.462c.69.692.656,2.665-1.2,4.565l0,.005-3.344,3.347.936,11.645a.515.515,0,0,1-.145.4l-1.629,1.667A.512.512,0,0,1,96.374,103.691ZM93.252,92.474a.512.512,0,0,1,.489.363l2.87,9.364.863-.883-.936-11.648a.514.514,0,0,1,.149-.4l3.51-3.513a4.427,4.427,0,0,0,1.267-2.149,1.312,1.312,0,0,0-.059-.967c-.188-.186-1.619-.5-3.179,1.085l0,0-3.487,3.5a.511.511,0,0,1-.414.148L82.629,86.19l-.873.894,9.41,3a.514.514,0,0,1,.242.814l-3.576,4.4a.512.512,0,0,1-.422.189l-5.241-.257L82,95.4l4.483,1.931a.514.514,0,0,1,.276.287l1.643,4.259.15-.154-.042-5.135a.513.513,0,0,1,.181-.4l4.232-3.6a.512.512,0,0,1,.331-.122Z" transform="translate(-18377.43 1277.557)" fill="#1d86db"/>
    <path id="交叉_4" data-name="交叉 4" d="M0,0H18.215a4,4,0,0,1,4,4V22.216Z" transform="translate(-18258.998 1347.001)" fill="#1d86db"/>
    <path id="路径_624" data-name="路径 624" d="M172.521,268.748l-4.467,4.45a.549.549,0,0,1-.6.121.582.582,0,0,1-.186-.121l-2.5-2.494a.558.558,0,0,1,.791-.788l2.112,2.1,4.076-4.061a.569.569,0,0,1,.791,0A.555.555,0,0,1,172.521,268.748Z" transform="translate(-18411.51 1082.642)" fill="#fff"/>
  </g>
</svg>
