<svg xmlns="http://www.w3.org/2000/svg" width="100.217" height="64" viewBox="0 0 100.217 64">
  <g id="Air-1" transform="translate(18822 -4883)">
    <g id="矩形_595" data-name="矩形 595" transform="translate(-18822 4883)" fill="#fff" stroke="#1d86db" stroke-width="1">
      <rect width="100" height="64" rx="4" stroke="none"/>
      <rect x="0.5" y="0.5" width="99" height="63" rx="3.5" fill="none"/>
    </g>
    <path id="路径_643" data-name="路径 643" d="M-10.326-7.764h8.34v1.572h.9V-8.58H-5.394A15.842,15.842,0,0,0-6.126-10.1l-.924.264c.192.372.408.852.588,1.26H-11.2V-5.9h.876Zm4.932,1.332A35.222,35.222,0,0,1-1.758-4.284l.588-.684a36.737,36.737,0,0,0-3.66-2.04Zm-5.172,2.256a14.232,14.232,0,0,0,3.648-2.34l-.612-.528a11.521,11.521,0,0,1-3.564,2.1ZM-5.706-.3V-3.312h3.42v-.816H-9.954v.816H-6.63V-.3h-4.56V.528H-1.074V-.3ZM10.722-9.288h-6v.84h6ZM4.674-1.464c.36-.144.876-.192,5.34-.588.192.336.36.648.48.912l.78-.42c-.456-.9-1.416-2.448-2.16-3.612l-.732.336c.4.612.828,1.332,1.212,2.016l-3.936.3a19.392,19.392,0,0,0,1.764-3.2h4.14v-.84H3.93v.84H6.366A15.76,15.76,0,0,1,5-3.036c-.24.384-.432.636-.648.684a8.981,8.981,0,0,1,.312.888A.059.059,0,0,1,4.674-1.5Zm-.948-6.4c-.48-.408-1.452-1.068-2.136-1.524L1-8.832c.7.5,1.644,1.188,2.112,1.608ZM3.2-5.868H.69v.828H2.334v3.792A6.135,6.135,0,0,0,.642.144l.612.828c.588-.792,1.188-1.5,1.584-1.5.276,0,.684.384,1.164.684a6.051,6.051,0,0,0,3.3.66C8.6.816,10.626.744,11.43.7a3.686,3.686,0,0,1,.288-.984,42.911,42.911,0,0,1-4.392.24A5.79,5.79,0,0,1,4.194-.636c-.468-.276-.732-.528-1-.648Z" transform="translate(-18772 4935)" fill="#1d86db"/>
    <path id="Air-1-2" data-name="Air-1" d="M96.374,103.691a.512.512,0,0,1-.49-.363L92.99,93.883,89.534,96.82l.042,5.107a.514.514,0,0,1-.147.364l-.856.873a.512.512,0,0,1-.843-.175l-1.852-4.8-4.97-2.141a.515.515,0,0,1-.165-.83l.852-.876a.512.512,0,0,1,.392-.155l5.213.256,2.936-3.612-9.485-3.021a.514.514,0,0,1-.211-.849l1.628-1.667a.513.513,0,0,1,.417-.152l11.7,1.181L97.5,82.993a4.577,4.577,0,0,1,3.222-1.549h.009a2.018,2.018,0,0,1,1.4.462c.69.692.656,2.665-1.2,4.565l0,.005-3.344,3.347.936,11.645a.515.515,0,0,1-.145.4l-1.629,1.667A.512.512,0,0,1,96.374,103.691ZM93.252,92.474a.512.512,0,0,1,.489.363l2.87,9.364.863-.883-.936-11.648a.514.514,0,0,1,.149-.4l3.51-3.513a4.427,4.427,0,0,0,1.267-2.149,1.312,1.312,0,0,0-.059-.967c-.188-.186-1.619-.5-3.179,1.085l0,0-3.487,3.5a.511.511,0,0,1-.414.148L82.629,86.19l-.873.894,9.41,3a.514.514,0,0,1,.242.814l-3.576,4.4a.512.512,0,0,1-.422.189l-5.241-.257L82,95.4l4.483,1.931a.514.514,0,0,1,.276.287l1.643,4.259.15-.154-.042-5.135a.513.513,0,0,1,.181-.4l4.232-3.6a.512.512,0,0,1,.331-.122Z" transform="translate(-18863.295 4813.557)" fill="#1d86db"/>
    <path id="交叉_8" data-name="交叉 8" d="M0,0H18.215a4,4,0,0,1,4,4V22.216Z" transform="translate(-18743.998 4883.001)" fill="#1d86db"/>
    <path id="路径_628" data-name="路径 628" d="M172.521,268.748l-4.467,4.45a.549.549,0,0,1-.6.121.582.582,0,0,1-.186-.121l-2.5-2.494a.558.558,0,0,1,.791-.788l2.112,2.1,4.076-4.061a.569.569,0,0,1,.791,0A.555.555,0,0,1,172.521,268.748Z" transform="translate(-18896.51 4618.642)" fill="#fff"/>
  </g>
</svg>
