<svg xmlns="http://www.w3.org/2000/svg" width="100.217" height="64" viewBox="0 0 100.217 64">
  <g id="Courier-1" transform="translate(18938 -4883)">
    <g id="矩形_593" data-name="矩形 593" transform="translate(-18938 4883)" fill="#fff" stroke="#1d86db" stroke-width="1">
      <rect width="100" height="64" rx="4" stroke="none"/>
      <rect x="0.5" y="0.5" width="99" height="63" rx="3.5" fill="none"/>
    </g>
    <path id="路径_642" data-name="路径 642" d="M-11.07-4.428a14.117,14.117,0,0,0,.6-3.216l-.684-.084a12.476,12.476,0,0,1-.612,3.048Zm1,5.34H-9.2V-10.044h-.876Zm2.46-6.852a12.525,12.525,0,0,0-.924-2.184l-.624.288a12.431,12.431,0,0,1,.876,2.22ZM-4.3-7.3h1.788V-4.56H-4.362c.048-.516.06-1.02.06-1.5Zm3.7,3.588V-4.56H-1.638V-8.136H-4.3v-1.908H-5.19v1.908H-7.53v.84h2.34V-6.06c0,.48-.012.984-.06,1.5H-8.178v.852H-5.37A5.459,5.459,0,0,1-8.562.276a4.734,4.734,0,0,1,.624.7A6.409,6.409,0,0,0-4.614-3.12,6.7,6.7,0,0,0-1.146.96,3.618,3.618,0,0,1-.51.132a6.042,6.042,0,0,1-3.456-3.84ZM7.218-5.9v1.092H5.178c.06-.336.108-.72.168-1.092ZM8.094-7.74h1.968v1.092H8.094ZM7.218-.852h.876V-4.08h2.364c-.072.876-.144,1.248-.264,1.368a.359.359,0,0,1-.336.1,9.65,9.65,0,0,1-1.02-.048,1.887,1.887,0,0,1,.216.756,9.022,9.022,0,0,0,1.152,0,.9.9,0,0,0,.66-.276c.216-.24.336-.852.42-2.292.012-.12.024-.336.024-.336H8.094V-5.9h2.748v-2.58H9.162c.3-.384.6-.864.888-1.308l-.876-.252a10.036,10.036,0,0,1-.924,1.56H6.366l.54-.264a4.895,4.895,0,0,0-.852-1.32l-.72.312a5.868,5.868,0,0,1,.78,1.272h-1.9v.744h3v1.092H4.65c-.084.828-.24,1.872-.372,2.568h2.46A7.506,7.506,0,0,1,3.786-2a4.326,4.326,0,0,1,.564.588A8.276,8.276,0,0,0,7.218-3.468ZM3.426-7.428A14.539,14.539,0,0,0,1.914-9.516l-.756.36A15.778,15.778,0,0,1,2.61-7.008ZM3.246-5.58H.786v.864h1.6v3.168A5.047,5.047,0,0,0,.774-.18l.6.828C1.89-.132,2.418-.84,2.778-.84c.264,0,.66.4,1.14.7A6.1,6.1,0,0,0,7.242.5c1.152,0,3.3-.072,4.176-.132a3.884,3.884,0,0,1,.276-.948,41.775,41.775,0,0,1-4.428.24A5.983,5.983,0,0,1,4.122-.9c-.4-.228-.648-.444-.876-.588Z" transform="translate(-18888 4935)" fill="#1d86db"/>
    <path id="Courier-1-2" data-name="Courier-1" d="M105.449,36.651,95.435,30.863a.524.524,0,0,0-.576,0L84.846,36.594h-.058a.6.6,0,0,0-.288.516V48.628a.6.6,0,0,0,.288.516L94.8,54.989a.75.75,0,0,0,.575,0L105.449,49.2a.6.6,0,0,0,.288-.516V37.166a.6.6,0,0,0-.288-.515ZM94.514,43.3V53.442l-8.805-5.1V38.2Zm4.949.745V41.121l1.266-.745V43.3ZM95.723,43.3l2.532-1.49v3.267a.6.6,0,0,0,.288.516.614.614,0,0,0,.46.057.212.212,0,0,0,.173-.057l2.532-1.433a.6.6,0,0,0,.288-.516V39.688l2.532-1.49V48.341l-8.805,5.1Zm-3.165-9.742,2.532-1.49,8.863,5.1-2.532,1.49-8.863-5.1Zm-2.475,1.433,1.266-.745,8.805,5.1-1.324.745-8.748-5.1Zm7.6,5.788-2.532,1.49-8.863-5.1,2.59-1.49Zm0,0" transform="translate(-18983.5 4863.223)" fill="#1d86db"/>
    <g id="Selected" transform="translate(-18958 4525)">
      <path id="交叉_1" data-name="交叉 1" d="M0,0H18.215a4,4,0,0,1,4,4V22.216Z" transform="translate(98.001 358.001)" fill="#1d86db"/>
      <path id="路径_601" data-name="路径 601" d="M172.521,268.748l-4.467,4.45a.549.549,0,0,1-.6.121.582.582,0,0,1-.186-.121l-2.5-2.494a.558.558,0,0,1,.791-.788l2.112,2.1,4.076-4.061a.569.569,0,0,1,.791,0A.555.555,0,0,1,172.521,268.748Z" transform="translate(-54.511 93.642)" fill="#fff"/>
    </g>
  </g>
</svg>
