<svg xmlns="http://www.w3.org/2000/svg" width="100" height="64" viewBox="0 0 100 64">
  <g id="Courier-2" transform="translate(18456 -1436)">
    <g id="矩形_576" data-name="矩形 576" transform="translate(-18456 1436)" fill="#fff" stroke="#ccc" stroke-width="1">
      <rect width="100" height="64" rx="4" stroke="none"/>
      <rect x="0.5" y="0.5" width="99" height="63" rx="3.5" fill="none"/>
    </g>
    <path id="路径_637" data-name="路径 637" d="M7.084-2.73,7.1-2.7a2.563,2.563,0,0,1-.844,2.01A3.224,3.224,0,0,1,3.961.123,3.009,3.009,0,0,1,1.6-.9,3.771,3.771,0,0,1,.691-3.5V-5.021a3.782,3.782,0,0,1,.911-2.6A3,3,0,0,1,3.961-8.654a3.312,3.312,0,0,1,2.3.771A2.547,2.547,0,0,1,7.1-5.842l-.012.035H5.977a1.9,1.9,0,0,0-.527-1.418,2.026,2.026,0,0,0-1.488-.521,1.818,1.818,0,0,0-1.541.779,3.17,3.17,0,0,0-.574,1.934V-3.5A3.19,3.19,0,0,0,2.42-1.559a1.818,1.818,0,0,0,1.541.779A2.033,2.033,0,0,0,5.449-1.3,1.918,1.918,0,0,0,5.977-2.73Zm1.384-.5A3.49,3.49,0,0,1,9.23-5.546,2.554,2.554,0,0,1,11.3-6.457a2.58,2.58,0,0,1,2.083.908,3.479,3.479,0,0,1,.765,2.32V-3.1a3.473,3.473,0,0,1-.762,2.32,2.572,2.572,0,0,1-2.074.9A2.577,2.577,0,0,1,9.233-.782,3.467,3.467,0,0,1,8.468-3.1ZM9.622-3.1a3.007,3.007,0,0,0,.425,1.664,1.406,1.406,0,0,0,1.263.656,1.4,1.4,0,0,0,1.254-.656A2.991,2.991,0,0,0,12.991-3.1v-.129a2.982,2.982,0,0,0-.431-1.658A1.412,1.412,0,0,0,11.3-5.549a1.392,1.392,0,0,0-1.251.662,3.014,3.014,0,0,0-.425,1.658ZM19.883-.937a2.147,2.147,0,0,1-.768.785,2.1,2.1,0,0,1-1.084.275,2.037,2.037,0,0,1-1.617-.662,3.074,3.074,0,0,1-.58-2.062V-6.34h1.154v3.75a2.36,2.36,0,0,0,.3,1.395,1.111,1.111,0,0,0,.932.381,1.9,1.9,0,0,0,1.017-.249,1.558,1.558,0,0,0,.606-.706V-6.34H21V0H19.959ZM25.978-5.32l-.592-.035a1.322,1.322,0,0,0-.771.217,1.391,1.391,0,0,0-.483.609V0H22.978V-6.34h1.031l.111.926a2.2,2.2,0,0,1,.665-.768,1.555,1.555,0,0,1,.911-.275,1.426,1.426,0,0,1,.246.021,1.631,1.631,0,0,1,.193.044ZM28.727,0H27.573V-6.34h1.154Zm0-7.963H27.573V-9.141h1.154Zm4.7,8.086A2.682,2.682,0,0,1,31.3-.75a3.36,3.36,0,0,1-.765-2.3V-3.3a3.289,3.289,0,0,1,.788-2.259,2.471,2.471,0,0,1,1.925-.894,2.3,2.3,0,0,1,1.907.791,3.259,3.259,0,0,1,.636,2.1v.609H31.734l-.018.029a2.62,2.62,0,0,0,.422,1.55,1.474,1.474,0,0,0,1.289.595,2.9,2.9,0,0,0,1.028-.167,2.3,2.3,0,0,0,.759-.46l.451.75a2.774,2.774,0,0,1-.9.554A3.571,3.571,0,0,1,33.428.123Zm-.182-5.672a1.255,1.255,0,0,0-1,.466,2.2,2.2,0,0,0-.483,1.192l.012.029h2.859v-.094a1.846,1.846,0,0,0-.34-1.143A1.228,1.228,0,0,0,33.246-5.549Zm7.138.229-.592-.035a1.322,1.322,0,0,0-.771.217,1.391,1.391,0,0,0-.483.609V0H37.384V-6.34h1.031l.111.926a2.2,2.2,0,0,1,.665-.768,1.555,1.555,0,0,1,.911-.275,1.426,1.426,0,0,1,.246.021,1.631,1.631,0,0,1,.193.044Z" transform="translate(-18427 1487)" fill="#666"/>
    <path id="Courier-1" d="M105.449,36.651,95.435,30.863a.524.524,0,0,0-.576,0L84.846,36.594h-.058a.6.6,0,0,0-.288.516V48.628a.6.6,0,0,0,.288.516L94.8,54.989a.75.75,0,0,0,.575,0L105.449,49.2a.6.6,0,0,0,.288-.516V37.166a.6.6,0,0,0-.288-.515ZM94.514,43.3V53.442l-8.805-5.1V38.2Zm4.949.745V41.121l1.266-.745V43.3ZM95.723,43.3l2.532-1.49v3.267a.6.6,0,0,0,.288.516.614.614,0,0,0,.46.057.212.212,0,0,0,.173-.057l2.532-1.433a.6.6,0,0,0,.288-.516V39.688l2.532-1.49V48.341l-8.805,5.1Zm-3.165-9.742,2.532-1.49,8.863,5.1-2.532,1.49-8.863-5.1Zm-2.475,1.433,1.266-.745,8.805,5.1-1.324.745-8.748-5.1Zm7.6,5.788-2.532,1.49-8.863-5.1,2.59-1.49Zm0,0" transform="translate(-18500.266 1416.223)" fill="#666"/>
  </g>
</svg>
