<svg xmlns="http://www.w3.org/2000/svg" width="100" height="64" viewBox="0 0 100 64">
  <g id="Land_Carriage-2" data-name="Land Carriage-2" transform="translate(18103 -1436)">
    <g id="矩形_584" data-name="矩形 584" transform="translate(-18103 1436)" fill="#fff" stroke="#ccc" stroke-width="1">
      <rect width="100" height="64" rx="4" stroke="none"/>
      <rect x="0.5" y="0.5" width="99" height="63" rx="3.5" fill="none"/>
    </g>
    <path id="路径_640" data-name="路径 640" d="M2.15-.9h4.16V0H1V-8.531H2.15Zm9.482.9q-.059-.287-.091-.507A3.72,3.72,0,0,1,11.5-.949a2.691,2.691,0,0,1-.841.765A2.15,2.15,0,0,1,9.546.123,2.072,2.072,0,0,1,8.037-.384a1.864,1.864,0,0,1-.519-1.4A1.637,1.637,0,0,1,8.254-3.2a3.434,3.434,0,0,1,2-.513H11.5v-.627a1.163,1.163,0,0,0-.34-.882,1.334,1.334,0,0,0-.961-.325,1.394,1.394,0,0,0-.908.281.844.844,0,0,0-.346.674l-1.1.012-.012-.035a1.517,1.517,0,0,1,.647-1.266,2.683,2.683,0,0,1,1.778-.574A2.618,2.618,0,0,1,12-5.909a1.941,1.941,0,0,1,.656,1.579v3.053a5.942,5.942,0,0,0,.035.656A3.374,3.374,0,0,0,12.821,0ZM9.716-.844a2.054,2.054,0,0,0,1.131-.322A1.532,1.532,0,0,0,11.5-1.9V-2.936H10.208a1.68,1.68,0,0,0-1.116.352,1.051,1.051,0,0,0-.419.826.869.869,0,0,0,.264.668A1.1,1.1,0,0,0,9.716-.844Zm5.948-5.5.082.943a2.3,2.3,0,0,1,.794-.782,2.118,2.118,0,0,1,1.087-.278,2.069,2.069,0,0,1,1.588.6A2.637,2.637,0,0,1,19.778-4V0H18.623V-3.979a1.715,1.715,0,0,0-.331-1.189,1.326,1.326,0,0,0-1.011-.352,1.789,1.789,0,0,0-.905.214,1.554,1.554,0,0,0-.589.6V0H14.633V-6.34ZM21.49-3.053a4.231,4.231,0,0,1,.653-2.467,2.105,2.105,0,0,1,1.831-.937,2.27,2.27,0,0,1,.987.205,2.024,2.024,0,0,1,.735.6V-9.141h1.154V0h-.885l-.176-.8a2.057,2.057,0,0,1-.768.691,2.293,2.293,0,0,1-1.061.234,2.176,2.176,0,0,1-1.816-.841A3.494,3.494,0,0,1,21.49-2.93Zm1.154.123a2.691,2.691,0,0,0,.393,1.538,1.371,1.371,0,0,0,1.219.577,1.529,1.529,0,0,0,.867-.234,1.75,1.75,0,0,0,.574-.656V-4.664a1.777,1.777,0,0,0-.577-.624,1.525,1.525,0,0,0-.853-.231,1.319,1.319,0,0,0-1.228.686,3.539,3.539,0,0,0-.4,1.781Zm15.758.2.012.035a2.563,2.563,0,0,1-.844,2.01,3.224,3.224,0,0,1-2.291.809A3.009,3.009,0,0,1,32.921-.9a3.771,3.771,0,0,1-.911-2.6V-5.021a3.782,3.782,0,0,1,.911-2.6,3,3,0,0,1,2.358-1.028,3.312,3.312,0,0,1,2.3.771,2.547,2.547,0,0,1,.832,2.042l-.012.035H37.295a1.9,1.9,0,0,0-.527-1.418,2.026,2.026,0,0,0-1.488-.521,1.818,1.818,0,0,0-1.541.779,3.17,3.17,0,0,0-.574,1.934V-3.5a3.19,3.19,0,0,0,.574,1.945,1.818,1.818,0,0,0,1.541.779A2.033,2.033,0,0,0,36.768-1.3a1.918,1.918,0,0,0,.527-1.433ZM43.952,0q-.059-.287-.091-.507a3.72,3.72,0,0,1-.038-.442,2.691,2.691,0,0,1-.841.765,2.15,2.15,0,0,1-1.116.308,2.072,2.072,0,0,1-1.509-.507,1.864,1.864,0,0,1-.519-1.4A1.637,1.637,0,0,1,40.574-3.2a3.434,3.434,0,0,1,2-.513h1.254v-.627a1.163,1.163,0,0,0-.34-.882,1.334,1.334,0,0,0-.961-.325,1.394,1.394,0,0,0-.908.281.844.844,0,0,0-.346.674l-1.1.012-.012-.035a1.517,1.517,0,0,1,.647-1.266,2.683,2.683,0,0,1,1.778-.574,2.618,2.618,0,0,1,1.734.548,1.941,1.941,0,0,1,.656,1.579v3.053a5.942,5.942,0,0,0,.035.656A3.374,3.374,0,0,0,45.142,0ZM42.036-.844a2.054,2.054,0,0,0,1.131-.322,1.532,1.532,0,0,0,.656-.738V-2.936H42.529a1.68,1.68,0,0,0-1.116.352,1.051,1.051,0,0,0-.419.826.869.869,0,0,0,.264.668A1.1,1.1,0,0,0,42.036-.844ZM49.954-5.32l-.592-.035a1.322,1.322,0,0,0-.771.217,1.391,1.391,0,0,0-.483.609V0H46.954V-6.34h1.031l.111.926a2.2,2.2,0,0,1,.665-.768,1.555,1.555,0,0,1,.911-.275,1.426,1.426,0,0,1,.246.021,1.631,1.631,0,0,1,.193.044Zm4.5,0-.592-.035a1.322,1.322,0,0,0-.771.217,1.391,1.391,0,0,0-.483.609V0H51.455V-6.34h1.031l.111.926a2.2,2.2,0,0,1,.665-.768,1.555,1.555,0,0,1,.911-.275,1.426,1.426,0,0,1,.246.021,1.631,1.631,0,0,1,.193.044ZM57.2,0H56.05V-6.34H57.2Zm0-7.963H56.05V-9.141H57.2ZM63.176,0q-.059-.287-.091-.507a3.72,3.72,0,0,1-.038-.442,2.691,2.691,0,0,1-.841.765A2.15,2.15,0,0,1,61.09.123a2.072,2.072,0,0,1-1.509-.507,1.864,1.864,0,0,1-.519-1.4A1.637,1.637,0,0,1,59.8-3.2a3.434,3.434,0,0,1,2-.513h1.254v-.627a1.163,1.163,0,0,0-.34-.882,1.334,1.334,0,0,0-.961-.325,1.394,1.394,0,0,0-.908.281.844.844,0,0,0-.346.674l-1.1.012-.012-.035a1.517,1.517,0,0,1,.647-1.266,2.683,2.683,0,0,1,1.778-.574,2.618,2.618,0,0,1,1.734.548A1.941,1.941,0,0,1,64.2-4.33v3.053a5.942,5.942,0,0,0,.035.656A3.374,3.374,0,0,0,64.365,0ZM61.26-.844a2.054,2.054,0,0,0,1.131-.322,1.532,1.532,0,0,0,.656-.738V-2.936H61.752a1.68,1.68,0,0,0-1.116.352,1.051,1.051,0,0,0-.419.826.869.869,0,0,0,.264.668A1.1,1.1,0,0,0,61.26-.844Zm4.712-2.209a4.231,4.231,0,0,1,.653-2.467,2.1,2.1,0,0,1,1.825-.937,2.225,2.225,0,0,1,1.061.243,2.134,2.134,0,0,1,.768.7l.141-.826h.92V.035a2.419,2.419,0,0,1-.709,1.872,2.913,2.913,0,0,1-2.045.653,4.287,4.287,0,0,1-.987-.126,3.86,3.86,0,0,1-.935-.343l.176-.9a3.338,3.338,0,0,0,.806.284,4.137,4.137,0,0,0,.929.108A1.681,1.681,0,0,0,69.8,1.2,1.59,1.59,0,0,0,70.185.035V-.686a2.044,2.044,0,0,1-.744.6,2.319,2.319,0,0,1-1,.205,2.168,2.168,0,0,1-1.813-.841,3.505,3.505,0,0,1-.653-2.212Zm1.154.123a2.694,2.694,0,0,0,.393,1.535,1.362,1.362,0,0,0,1.213.58,1.526,1.526,0,0,0,.873-.237,1.8,1.8,0,0,0,.58-.671V-4.641a1.791,1.791,0,0,0-.58-.642,1.522,1.522,0,0,0-.861-.237,1.314,1.314,0,0,0-1.222.686,3.539,3.539,0,0,0-.4,1.781Zm8.8,3.053a2.682,2.682,0,0,1-2.13-.873,3.36,3.36,0,0,1-.765-2.3V-3.3a3.289,3.289,0,0,1,.788-2.259,2.471,2.471,0,0,1,1.925-.894,2.3,2.3,0,0,1,1.907.791,3.259,3.259,0,0,1,.636,2.1v.609H74.229l-.018.029a2.62,2.62,0,0,0,.422,1.55,1.474,1.474,0,0,0,1.289.595,2.9,2.9,0,0,0,1.028-.167,2.3,2.3,0,0,0,.759-.46l.451.75a2.774,2.774,0,0,1-.9.554A3.571,3.571,0,0,1,75.922.123Zm-.182-5.672a1.255,1.255,0,0,0-1,.466,2.2,2.2,0,0,0-.483,1.192l.012.029h2.859v-.094a1.846,1.846,0,0,0-.34-1.143A1.228,1.228,0,0,0,75.741-5.549Z" transform="translate(-18092 1487)" fill="#666"/>
    <path id="Land_Carriage" data-name="Land Carriage" d="M27.361,132.669H25.828a3.082,3.082,0,0,1-6.088,0H9.831a3.022,3.022,0,0,1-3.044,2.6,3.022,3.022,0,0,1-3.044-2.6H.509A.5.5,0,0,1,0,132.18V118.316a.5.5,0,0,1,.511-.49H18.233a.5.5,0,0,1,.511.49v2.746H23.07a.518.518,0,0,1,.419.211l2.794,3.833,1.093,1.469.4.543a.475.475,0,0,1,.092.279v4.769a.479.479,0,0,1-.142.354A.521.521,0,0,1,27.361,132.669Zm-4.566,1.469a1.96,1.96,0,1,0-2.043-1.958,2.026,2.026,0,0,0,2.043,1.983Zm-16,0a1.96,1.96,0,1,0,0-3.916,2,2,0,0,0-2.043,1.958A2.026,2.026,0,0,0,6.8,134.162ZM1.03,118.805v8.773H14.9a.49.49,0,1,1,0,.979H1.03v3.133H3.753a3.022,3.022,0,0,1,3.045-2.6,3.021,3.021,0,0,1,3.044,2.6h7.881V121.033H14.035a.49.49,0,1,1,0-.979h3.688v-1.248ZM22.8,122.041H18.719v9.649H19.74a3.082,3.082,0,0,1,6.088,0H26.85v-4.137l-.153-.211H20.465a.5.5,0,0,1-.511-.489v-3.623a.5.5,0,0,1,.511-.49h2.86Zm1.236,1.689H20.976v2.643h5.011Z" transform="translate(-18066.361 1332.674)" fill="#666" stroke="#666" stroke-width="0.2"/>
  </g>
</svg>
