<svg xmlns="http://www.w3.org/2000/svg" width="100.217" height="64" viewBox="0 0 100.217 64">
  <g id="Land_Carriage-1" data-name="Land Carriage-1" transform="translate(18588 -4883)">
    <g id="矩形_594" data-name="矩形 594" transform="translate(-18588 4883)" fill="#fff" stroke="#1d86db" stroke-width="1">
      <rect width="100" height="64" rx="4" stroke="none"/>
      <rect x="0.5" y="0.5" width="99" height="63" rx="3.5" fill="none"/>
    </g>
    <path id="路径_645" data-name="路径 645" d="M-8.25-9.588l-.144.036h-2.784V.9h.816V-8.736h1.6c-.312.8-.72,1.848-1.128,2.688A3.365,3.365,0,0,1-8.6-3.612a.944.944,0,0,1-.288.828.8.8,0,0,1-.432.108,3.1,3.1,0,0,1-.8-.024,2.3,2.3,0,0,1,.216.8,5.826,5.826,0,0,0,.924-.024,1.543,1.543,0,0,0,.672-.228,1.625,1.625,0,0,0,.516-1.4,3.592,3.592,0,0,0-1.272-2.6c.456-.924.984-2.088,1.392-3.072Zm4.572,5.04H-.7v-.84H-3.678V-7.464h2.256v-.828H-3.678V-9.984h-.876v1.692H-6.99v.828h2.436v2.076H-7.506v.84h2.952V-.564h-1.68V-3.4H-7.1V.252H-2v.6h.852V-3.4H-2V-.564h-1.68Zm14.4-4.74h-6v.84h6ZM4.674-1.464c.36-.144.876-.192,5.34-.588.192.336.36.648.48.912l.78-.42c-.456-.9-1.416-2.448-2.16-3.612l-.732.336c.4.612.828,1.332,1.212,2.016l-3.936.3a19.392,19.392,0,0,0,1.764-3.2h4.14v-.84H3.93v.84H6.366A15.76,15.76,0,0,1,5-3.036c-.24.384-.432.636-.648.684a8.981,8.981,0,0,1,.312.888A.059.059,0,0,1,4.674-1.5Zm-.948-6.4c-.48-.408-1.452-1.068-2.136-1.524L1-8.832c.7.5,1.644,1.188,2.112,1.608ZM3.2-5.868H.69v.828H2.334v3.792A6.135,6.135,0,0,0,.642.144l.612.828c.588-.792,1.188-1.5,1.584-1.5.276,0,.684.384,1.164.684a6.051,6.051,0,0,0,3.3.66C8.6.816,10.626.744,11.43.7a3.686,3.686,0,0,1,.288-.984,42.911,42.911,0,0,1-4.392.24A5.79,5.79,0,0,1,4.194-.636c-.468-.276-.732-.528-1-.648Z" transform="translate(-18538 4935)" fill="#1d86db"/>
    <path id="Land_Carriage" data-name="Land Carriage" d="M27.361,132.669H25.828a3.082,3.082,0,0,1-6.088,0H9.831a3.022,3.022,0,0,1-3.044,2.6,3.022,3.022,0,0,1-3.044-2.6H.509A.5.5,0,0,1,0,132.18V118.316a.5.5,0,0,1,.511-.49H18.233a.5.5,0,0,1,.511.49v2.746H23.07a.518.518,0,0,1,.419.211l2.794,3.833,1.093,1.469.4.543a.475.475,0,0,1,.092.279v4.769a.479.479,0,0,1-.142.354A.521.521,0,0,1,27.361,132.669Zm-4.566,1.469a1.96,1.96,0,1,0-2.043-1.958,2.026,2.026,0,0,0,2.043,1.983Zm-16,0a1.96,1.96,0,1,0,0-3.916,2,2,0,0,0-2.043,1.958A2.026,2.026,0,0,0,6.8,134.162ZM1.03,118.805v8.773H14.9a.49.49,0,1,1,0,.979H1.03v3.133H3.753a3.022,3.022,0,0,1,3.045-2.6,3.021,3.021,0,0,1,3.044,2.6h7.881V121.033H14.035a.49.49,0,1,1,0-.979h3.688v-1.248ZM22.8,122.041H18.719v9.649H19.74a3.082,3.082,0,0,1,6.088,0H26.85v-4.137l-.153-.211H20.465a.5.5,0,0,1-.511-.489v-3.623a.5.5,0,0,1,.511-.49h2.86Zm1.236,1.689H20.976v2.643h5.011Z" transform="translate(-18551.498 4779.674)" fill="#1d86db" stroke="#1d86db" stroke-width="0.1"/>
    <g id="组_832" data-name="组 832" transform="translate(117)">
      <path id="交叉_9" data-name="交叉 9" d="M0,0H18.215a4,4,0,0,1,4,4V22.216Z" transform="translate(-18626.998 4883.001)" fill="#1d86db"/>
      <path id="路径_629" data-name="路径 629" d="M172.521,268.748l-4.467,4.45a.549.549,0,0,1-.6.121.582.582,0,0,1-.186-.121l-2.5-2.494a.558.558,0,0,1,.791-.788l2.112,2.1,4.076-4.061a.569.569,0,0,1,.791,0A.555.555,0,0,1,172.521,268.748Z" transform="translate(-18779.51 4618.642)" fill="#fff"/>
    </g>
  </g>
</svg>
