<svg xmlns="http://www.w3.org/2000/svg" width="236.542" height="44.483" viewBox="0 0 236.542 44.483">
  <g id="logo-English" transform="translate(0.5)">
    <path id="联合_48" data-name="联合 48" d="M169.576,40.415a8.291,8.291,0,0,1-3.529-6.242h5.763a4.508,4.508,0,0,0,2.088,2.443,7.626,7.626,0,0,0,3.883.9,5.335,5.335,0,0,0,3.9-1.545,6.246,6.246,0,0,0,1.566-4.635v-4.05a8.2,8.2,0,0,1-7.308,4.217,10.169,10.169,0,0,1-7.788-3.361,12.138,12.138,0,0,1-3.11-8.581,12.037,12.037,0,0,1,3.09-8.54A10.26,10.26,0,0,1,175.986,7.7a8.1,8.1,0,0,1,7.266,3.925V8.033H189.1v23.3a11.468,11.468,0,0,1-2.923,8.122q-2.923,3.154-8.2,3.153T169.576,40.415Zm3.256-25.826a6.674,6.674,0,0,0-1.816,4.97,6.771,6.771,0,0,0,1.838,5.01,5.928,5.928,0,0,0,8.56.021,6.7,6.7,0,0,0,1.838-4.99,6.7,6.7,0,0,0-1.838-4.991,6,6,0,0,0-8.582-.021ZM130.459,28.223a11.928,11.928,0,0,1-3.174-8.664,11.744,11.744,0,0,1,3.2-8.624A11.108,11.108,0,0,1,138.747,7.7a11.478,11.478,0,0,1,8.33,3.153,11.168,11.168,0,0,1,3.257,8.414,14.261,14.261,0,0,1-.166,2.254H133.3a5.487,5.487,0,0,0,1.67,3.632,5.2,5.2,0,0,0,3.716,1.379,4.864,4.864,0,0,0,4.51-2.506h6.347a10.154,10.154,0,0,1-3.883,5.386,11.56,11.56,0,0,1-6.973,2.088A10.94,10.94,0,0,1,130.459,28.223Zm4.614-14.177a5.831,5.831,0,0,0-1.775,3.675h10.94a5.039,5.039,0,0,0-1.691-3.675,5.521,5.521,0,0,0-3.778-1.378A5.217,5.217,0,0,0,135.073,14.046ZM91.85,31.216a2,2,0,0,1-2-2v-10.7a.577.577,0,0,1-.019-.148l-.005-3.578a.57.57,0,0,1,.024-.171V6.365a.531.531,0,0,1-.015-.126L89.829,2.66a.7.7,0,0,1,.756-.635l20.254-.046a.4.4,0,0,1,.432.36c0,2.477-2.394,4.487-5.356,4.492l-10.11.026v7.283l8.894-.026a.372.372,0,0,1,.383.36,4.629,4.629,0,0,1-4.757,4.491l-4.52.016V29.216a2,2,0,0,1-2,2Zm139.226-.049a8.227,8.227,0,0,1-5.47-1.629q-1.921-1.628-1.921-5.386V12.845l-2.965.011a.661.661,0,0,1-.686-.633l0-3.578a.659.659,0,0,1,.683-.634L223.684,8V2.313h5.888V7.984l5.58-.016a.376.376,0,0,1,.39.36A4.674,4.674,0,0,1,230.7,12.82l-1.132,0V24.152a2.058,2.058,0,0,0,.543,1.608,2.854,2.854,0,0,0,1.879.48h2.8v4.927Zm-19.736,0V18.389a5.778,5.778,0,0,0-1.378-4.154,4.956,4.956,0,0,0-3.758-1.441,5.026,5.026,0,0,0-3.779,1.441,5.726,5.726,0,0,0-1.4,4.154V31.167h-5.888V.266h5.888V11.5q2.214-3.8,7.182-3.8a8.574,8.574,0,0,1,6.473,2.61,10.029,10.029,0,0,1,2.506,7.244V31.167Zm-56.593,0V8.033h5.888V31.167Zm-42.437,0V8.033H118.2v4.092Q120.534,7.7,124.961,7.7v6.013H123.5a5.433,5.433,0,0,0-3.967,1.316q-1.336,1.315-1.336,4.531V31.167ZM4.3,26.933A14.337,14.337,0,0,1,0,16.243,14.3,14.3,0,0,1,4.322,5.554,14.579,14.579,0,0,1,14.908,1.337a15.079,15.079,0,0,1,8.455,2.422,13.293,13.293,0,0,1,5.282,6.806H21.588a6.9,6.9,0,0,0-6.681-3.841,8.5,8.5,0,0,0-6.452,2.61,9.636,9.636,0,0,0-2.484,6.931A9.637,9.637,0,0,0,8.456,23.2a8.507,8.507,0,0,0,6.452,2.61,6.949,6.949,0,0,0,6.681-3.841h7.057a13.188,13.188,0,0,1-5.282,6.785,15.172,15.172,0,0,1-8.455,2.4A14.56,14.56,0,0,1,4.3,26.933ZM49.718,30.9V18.122a5.778,5.778,0,0,0-1.378-4.154,4.953,4.953,0,0,0-3.758-1.441A5.021,5.021,0,0,0,40.8,13.968a5.726,5.726,0,0,0-1.4,4.154V30.9H33.516V0H39.4V11.233q2.213-3.8,7.182-3.8a8.573,8.573,0,0,1,6.473,2.609,10.036,10.036,0,0,1,2.5,7.245V30.9Z" transform="translate(0 1.375)" fill="#fff" stroke="rgba(0,0,0,0)" stroke-miterlimit="10" stroke-width="1"/>
    <circle id="椭圆_25" data-name="椭圆 25" cx="3.733" cy="3.733" r="3.733" transform="translate(153.878)" fill="#ef872a"/>
    <path id="联合_40" data-name="联合 40" d="M11.651,24.928V24.9A12.464,12.464,0,1,1,24.9,11.651h.026V24.928Z" transform="translate(58.967 7.663)" fill="#ef872a"/>
    <path id="路径_550" data-name="路径 550" d="M160.409,76.7a8.309,8.309,0,1,0,8.309,8.309A8.318,8.318,0,0,0,160.409,76.7Zm-.484,4.077a12.012,12.012,0,0,1-2.177-.3c.112-.268.233-.518.363-.76a4.182,4.182,0,0,1,1.814-1.935Zm0,.976v2.773h-3.04a11.972,11.972,0,0,1,.536-3.127A12.6,12.6,0,0,0,159.925,81.753Zm0,3.74v2.773a12.168,12.168,0,0,0-2.513.363,12.341,12.341,0,0,1-.536-3.127h3.049Zm0,3.749v3.006a4.27,4.27,0,0,1-1.814-1.935c-.13-.242-.251-.492-.363-.76A11.3,11.3,0,0,1,159.925,89.242Zm.967,0a12.012,12.012,0,0,1,2.177.3c-.112.268-.233.518-.363.76a4.181,4.181,0,0,1-1.814,1.935Zm0-.976V85.493h3.04a11.972,11.972,0,0,1-.535,3.127A12.509,12.509,0,0,0,160.893,88.266Zm0-3.749V81.744a12.169,12.169,0,0,0,2.514-.363,12.342,12.342,0,0,1,.535,3.127h-3.049Zm0-3.74V77.771a4.269,4.269,0,0,1,1.814,1.935c.13.242.251.492.363.76A11.3,11.3,0,0,1,160.893,80.777Zm2.669-1.529a7.406,7.406,0,0,0-.786-1.183,7.407,7.407,0,0,1,2.6,1.546,9.583,9.583,0,0,1-1.356.587C163.881,79.87,163.726,79.55,163.562,79.248Zm-6.305,0c-.164.3-.311.622-.449.95a9.17,9.17,0,0,1-1.356-.587,7.279,7.279,0,0,1,2.6-1.546A6.889,6.889,0,0,0,157.257,79.248Zm-.777,1.866a13.234,13.234,0,0,0-.57,3.412h-2.816a7.253,7.253,0,0,1,1.667-4.181A11.142,11.142,0,0,0,156.479,81.114Zm-.57,4.379a13.3,13.3,0,0,0,.57,3.412,9.145,9.145,0,0,0-1.719.777,7.312,7.312,0,0,1-1.667-4.181h2.816Zm.9,4.327c.138.328.285.648.449.95a7.406,7.406,0,0,0,.786,1.183,7.406,7.406,0,0,1-2.6-1.546A9.275,9.275,0,0,1,156.807,89.82Zm6.755.95c.164-.3.311-.622.449-.95a9.166,9.166,0,0,1,1.356.587,7.279,7.279,0,0,1-2.6,1.546A6.887,6.887,0,0,0,163.562,90.77Zm.786-1.866a13.237,13.237,0,0,0,.57-3.412h2.816a7.254,7.254,0,0,1-1.667,4.181A9.705,9.705,0,0,0,164.348,88.9Zm.57-4.388a13.3,13.3,0,0,0-.57-3.412,9.145,9.145,0,0,0,1.719-.777,7.312,7.312,0,0,1,1.667,4.181h-2.816Z" transform="translate(-88.978 -64.882)" fill="#fff"/>
  </g>
</svg>
