<svg xmlns="http://www.w3.org/2000/svg" width="126.265" height="38.16" viewBox="0 0 126.265 38.16">
  <g id="logo-Chinese" transform="translate(-9248.708 -5592)">
    <path id="联合_56" data-name="联合 56" d="M2.737,38.16a2.172,2.172,0,0,1,0-4.343h9.937a11.065,11.065,0,0,0,13.757,0h9.812a2.172,2.172,0,1,1,0,4.343ZM35.781,20.088,21.662,11.936v2.316a11.152,11.152,0,0,0-4.343.024V11.97L3.258,20.088a2.172,2.172,0,0,1-2.172-3.761l8.743-5.048L12.572,9.7H.837a.271.271,0,0,1-.271-.272v-3.8a.271.271,0,0,1,.271-.272H17.319V.31a.311.311,0,0,1,.31-.31h3.723a.311.311,0,0,1,.31.31V5.352H38.144a.271.271,0,0,1,.271.272A4.072,4.072,0,0,1,34.343,9.7H26.467l6.932,4,4.554,2.629a2.172,2.172,0,1,1-2.172,3.761Z" transform="translate(9248.708 5592)" fill="#fff"/>
    <path id="联合_58" data-name="联合 58" d="M40.768,36.529v0h-25.7a9.375,9.375,0,0,1-7.734-4.065L4.16,35.636a2.173,2.173,0,0,1-3.072,0l-.167-.167a2.173,2.173,0,0,1,0-3.072L2.688,30.63l3-3v-.141q-.006-.173-.006-.346v-.852h.006V14.842H2.172A2.171,2.171,0,0,1,0,12.67v-.237a2.171,2.171,0,0,1,2.172-2.172H8.052a2.172,2.172,0,0,1,2.172,2.172v.237a2.2,2.2,0,0,1-.014.244,2.3,2.3,0,0,1,.054.5V26.294h0a5.893,5.893,0,0,0,5.885,5.569h24.7a2.335,2.335,0,0,1,0,4.668Zm-8.6-8.616-.685-1.186L17.712,28.176a2.164,2.164,0,0,1-1.5-.251l-.205-.119a2.171,2.171,0,0,1-.795-2.966l4.551-7.883,1.457-2.524H15.585a2.171,2.171,0,0,1-2.172-2.172v-.155a2.171,2.171,0,0,1,2.172-2.172h20.6a2.171,2.171,0,0,1,2.172,2.172v.155a2.171,2.171,0,0,1-2.172,2.172H26.424a2.175,2.175,0,0,1-.217.521L21.46,23.176l4.6-.483,2.918-.307-.2-.344a2.171,2.171,0,0,1,.8-2.966l.2-.119a2.173,2.173,0,0,1,2.967.795l1.555,2.7,1.834,3.177a2.171,2.171,0,0,1-.795,2.966l-.205.118a2.17,2.17,0,0,1-2.966-.795ZM2.653,3.529A3.53,3.53,0,1,1,6.182,7.058,3.529,3.529,0,0,1,2.653,3.529ZM17.327,5.972a2.109,2.109,0,0,1-2.109-2.109V3.582a2.109,2.109,0,0,1,2.109-2.109H35.956a.282.282,0,0,1,.282.282A4.217,4.217,0,0,1,32.02,5.972Z" transform="translate(9291.838 5593.628)" fill="#fff"/>
    <path id="联合_57" data-name="联合 57" d="M31.307,38.086a16.318,16.318,0,0,1-3.267-.33,16.122,16.122,0,0,1-5.8-2.439,16.3,16.3,0,0,1-4.378-4.378q-.16-.237-.312-.479-.152.242-.312.479a16.293,16.293,0,0,1-4.378,4.378,16.2,16.2,0,0,1-2.754,1.494,16.117,16.117,0,0,1-3.043.945,16.337,16.337,0,0,1-3.267.329H2.017a1.939,1.939,0,1,1,0-3.877H3.645a12.5,12.5,0,0,0,11.443-7.49H4.137v4.074a2.035,2.035,0,0,1-4.071,0V24.882q-.01-.1-.01-.2A2.052,2.052,0,0,1,2.1,22.638q.1,0,.2.009H32.076q.1-.009.2-.009a2.046,2.046,0,0,1,2.035,2.394v5.76a2.035,2.035,0,0,1-4.071,0V26.718H20.019a12.5,12.5,0,0,0,11.443,7.49h1.629a1.939,1.939,0,1,1,0,3.877H31.307ZM21.349,19.937H12.088a2.056,2.056,0,0,1-4.107,0H2.731a2.183,2.183,0,0,1-.378.033H2.2a2.17,2.17,0,0,1-.671-.106A1.934,1.934,0,0,1,0,18.046v-.252a1.712,1.712,0,0,1,.026-.3V12.245A2.181,2.181,0,0,1,.072,11.8a1.966,1.966,0,0,1,1.164-1.5,2.163,2.163,0,0,1,.962-.224h.155q.1,0,.2.009H7.979V8.3H4.217A4.017,4.017,0,0,1,0,4.522.268.268,0,0,1,.281,4.27h7.7V2.056a2.056,2.056,0,1,1,4.112,0V4.27h9.256V2.056a2.056,2.056,0,1,1,4.112,0V4.27h6.412q.065,0,.131,0h.155q.069,0,.138,0a2,2,0,0,1,2.065,1.89v.252a1.711,1.711,0,0,1-.031.324v5.021q0,.039,0,.077a1.768,1.768,0,0,1,.011.2v.139a2.068,2.068,0,0,1-2.172,1.947H25.459V15.9h8.62a.268.268,0,0,1,.281.252,4.017,4.017,0,0,1-4.217,3.781H25.457a2.056,2.056,0,0,1-4.107,0ZM16.038,15.9h5.309V14.115H12.09V15.9Zm-8.059,0V14.115H4.525V15.9ZM29.83,10.082V8.3H25.459v1.78Zm-10.821,0h2.338V8.3H12.09v1.78Z" transform="translate(9339.942 5592.074)" fill="#fff"/>
    <path id="联合_51" data-name="联合 51" d="M9.741,0A9.741,9.741,0,1,1,0,9.741,9.741,9.741,0,0,1,9.741,0Z" transform="translate(9258.503 5607.434)" fill="#ef872a"/>
    <path id="路径_583" data-name="路径 583" d="M158.852,76.7a6.752,6.752,0,1,0,6.752,6.752A6.76,6.76,0,0,0,158.852,76.7Zm-.393,3.313a9.762,9.762,0,0,1-1.769-.246c.091-.218.19-.421.295-.618a3.4,3.4,0,0,1,1.474-1.572Zm0,.793v2.253h-2.471a9.728,9.728,0,0,1,.435-2.541A10.239,10.239,0,0,0,158.459,80.806Zm0,3.039V86.1a9.888,9.888,0,0,0-2.043.295,10.029,10.029,0,0,1-.435-2.541h2.478Zm0,3.046v2.443a3.47,3.47,0,0,1-1.474-1.572c-.105-.2-.2-.4-.295-.618A9.184,9.184,0,0,1,158.459,86.892Zm.786,0a9.762,9.762,0,0,1,1.769.246c-.091.218-.189.421-.295.618a3.4,3.4,0,0,1-1.474,1.572Zm0-.793V83.845h2.471a9.727,9.727,0,0,1-.435,2.541A10.163,10.163,0,0,0,159.245,86.1Zm0-3.046V80.8a9.889,9.889,0,0,0,2.043-.295,10.029,10.029,0,0,1,.435,2.541h-2.478Zm0-3.039V77.57a3.47,3.47,0,0,1,1.474,1.572c.105.2.2.4.295.618A9.183,9.183,0,0,1,159.245,80.013Zm2.169-1.242a6.017,6.017,0,0,0-.639-.962,6.019,6.019,0,0,1,2.113,1.256,7.786,7.786,0,0,1-1.1.477C161.674,79.276,161.548,79.016,161.414,78.771Zm-5.124,0c-.133.246-.253.505-.365.772a7.452,7.452,0,0,1-1.1-.477,5.915,5.915,0,0,1,2.113-1.256A5.6,5.6,0,0,0,156.29,78.771Zm-.632,1.516a10.758,10.758,0,0,0-.463,2.773h-2.288a5.894,5.894,0,0,1,1.355-3.4A9.055,9.055,0,0,0,155.659,80.287Zm-.463,3.559a10.809,10.809,0,0,0,.463,2.773,7.432,7.432,0,0,0-1.4.632,5.941,5.941,0,0,1-1.355-3.4H155.2Zm.73,3.517c.112.267.232.526.365.772a6.022,6.022,0,0,0,.639.962,6.019,6.019,0,0,1-2.113-1.256A7.537,7.537,0,0,1,155.925,87.362Zm5.489.772c.133-.246.253-.505.365-.772a7.45,7.45,0,0,1,1.1.477,5.916,5.916,0,0,1-2.113,1.256A5.6,5.6,0,0,0,161.414,88.134Zm.639-1.516a10.755,10.755,0,0,0,.463-2.773H164.8a5.894,5.894,0,0,1-1.355,3.4A7.89,7.89,0,0,0,162.053,86.618Zm.463-3.566a10.806,10.806,0,0,0-.463-2.773,7.432,7.432,0,0,0,1.4-.632,5.942,5.942,0,0,1,1.355,3.4h-2.288Z" transform="translate(9109.429 5533.683)" fill="#fff"/>
  </g>
</svg>
