<svg xmlns="http://www.w3.org/2000/svg" width="100" height="64" viewBox="0 0 100 64">
  <g id="Others-1" transform="translate(18472 -4883)">
    <g id="矩形_596" data-name="矩形 596" transform="translate(-18472 4883)" fill="#fff" stroke="#1d86db" stroke-width="1">
      <rect width="100" height="64" rx="4" stroke="none"/>
      <rect x="0.5" y="0.5" width="99" height="63" rx="3.5" fill="none"/>
    </g>
    <path id="路径_646" data-name="路径 646" d="M-7.683-3.465h4.07v1.2h-4.07Zm4.07-3.685v1.089h-4.07V-7.15Zm-4.07,1.793h4.07v1.188h-4.07Zm6.9,3.091H-2.8V-7.15h1.76v-.77H-2.8V-9.185h-.814V-7.92h-4.07V-9.185h-.8V-7.92h-1.7v.77h1.7v4.884H-10.5v.759H-.786Zm-6.369.957A14.418,14.418,0,0,1-10.609.2a5.466,5.466,0,0,1,.539.627A19.566,19.566,0,0,0-6.429-.8Zm2.321.572A22.958,22.958,0,0,1-1.479.8L-.753.264A26.65,26.65,0,0,0-4.284-1.254ZM3.1-9.163A12.4,12.4,0,0,1,.379-4.8a5.7,5.7,0,0,1,.462.77A12.611,12.611,0,0,0,1.93-5.357V.825h.8V-6.611A17.248,17.248,0,0,0,3.845-8.932ZM6.242-.044c-.77,0-.913-.143-.913-.77V-4.686l1.606-.638V-1.6h.781V-5.632L9.432-6.3a22.722,22.722,0,0,1-.121,3.168c-.066.286-.176.33-.374.33-.143,0-.539,0-.836-.022a2.478,2.478,0,0,1,.2.77,4.605,4.605,0,0,0,1.111-.077.859.859,0,0,0,.66-.8A33.518,33.518,0,0,0,10.2-6.963l.033-.143-.561-.231-.143.121-.1.088-1.716.66V-9.185H6.936v3.014L5.33-5.544V-8.118h-.8v2.893L3.14-4.686l.319.715,1.067-.418V-.814c0,1.2.4,1.507,1.694,1.507H9.092C10.3.693,10.554.209,10.7-1.3a2.366,2.366,0,0,1-.759-.341c-.1,1.3-.209,1.6-.88,1.6Z" transform="translate(-18422 4935)" fill="#1d86db"/>
    <path id="Others" d="M82.875,332.687a8.634,8.634,0,0,1-1.515-.141c-2.459-.439-4.337-2.305-6.117-4.232-1.8,1.935-3.7,3.793-6.236,4.232a6.047,6.047,0,0,1-4.973-.985,5.759,5.759,0,0,1,.041-8.328,5.944,5.944,0,0,1,4.94-.946c2.517.47,4.42,2.393,6.229,4.355,1.782-1.935,3.65-3.851,6.1-4.353h0a5.9,5.9,0,0,1,4.9.881,5.228,5.228,0,0,1,1.847,4.245,5.123,5.123,0,0,1-1.773,4.163A5.364,5.364,0,0,1,82.875,332.687Zm-6.864-5.207c1.738,1.887,3.423,3.592,5.556,3.973a4.891,4.891,0,0,0,4.021-.727,4.717,4.717,0,0,0-.062-6.69,4.7,4.7,0,0,0-3.944-.657C79.447,323.816,77.765,325.572,76.011,327.479Zm-8.53-4.228a4.186,4.186,0,0,0-2.676.84,4.689,4.689,0,0,0-.035,6.617,4.929,4.929,0,0,0,4.035.743c2.212-.383,3.92-2.08,5.67-3.973-1.774-1.929-3.485-3.689-5.678-4.1A7.191,7.191,0,0,0,67.481,323.252Z" transform="translate(-18496.773 4579.377)" fill="#1d86db" stroke="#1d86db" stroke-width="0.3"/>
    <g id="组_833" data-name="组 833" transform="translate(232)">
      <path id="交叉_9" data-name="交叉 9" d="M0,0H18.215a4,4,0,0,1,4,4V22.216Z" transform="translate(-18626.998 4883.001)" fill="#1d86db"/>
      <path id="路径_629" data-name="路径 629" d="M172.521,268.748l-4.467,4.45a.549.549,0,0,1-.6.121.582.582,0,0,1-.186-.121l-2.5-2.494a.558.558,0,0,1,.791-.788l2.112,2.1,4.076-4.061a.569.569,0,0,1,.791,0A.555.555,0,0,1,172.521,268.748Z" transform="translate(-18779.51 4618.642)" fill="#fff"/>
    </g>
  </g>
</svg>
