<svg xmlns="http://www.w3.org/2000/svg" width="100.217" height="64" viewBox="0 0 100.217 64">
  <g id="Others-1" transform="translate(17987 -1347)">
    <g id="矩形_583" data-name="矩形 583" transform="translate(-17987 1347)" fill="#fff" stroke="#1d86db" stroke-width="1">
      <rect width="100" height="64" rx="4" stroke="none"/>
      <rect x="0.5" y="0.5" width="99" height="63" rx="3.5" fill="none"/>
    </g>
    <path id="路径_636" data-name="路径 636" d="M-10.21-3.212A3.337,3.337,0,0,1-11.1-.833a3.023,3.023,0,0,1-2.307.945,2.865,2.865,0,0,1-2.226-.945,3.409,3.409,0,0,1-.857-2.379V-4.6a3.421,3.421,0,0,1,.857-2.379,2.857,2.857,0,0,1,2.226-.951,3.018,3.018,0,0,1,2.307.948A3.346,3.346,0,0,1-10.21-4.6Zm-1.058-1.4a2.638,2.638,0,0,0-.58-1.762,1.934,1.934,0,0,0-1.558-.687,1.792,1.792,0,0,0-1.474.688,2.73,2.73,0,0,0-.551,1.762v1.4a2.748,2.748,0,0,0,.551,1.772,1.792,1.792,0,0,0,1.474.688,1.935,1.935,0,0,0,1.56-.685,2.66,2.66,0,0,0,.577-1.775Zm4.185-2.6v1.4h1.1v.784h-1.1V-1.5a.79.79,0,0,0,.169.575.612.612,0,0,0,.448.167.983.983,0,0,0,.2-.024,1.514,1.514,0,0,0,.188-.051l.145.725a.935.935,0,0,1-.349.158,1.762,1.762,0,0,1-.457.062A1.37,1.37,0,0,1-7.76-.277,1.691,1.691,0,0,1-8.142-1.5V-5.027h-.924v-.784h.924v-1.4Zm3.567,2.181a2.144,2.144,0,0,1,.739-.653,2.026,2.026,0,0,1,.969-.234A1.877,1.877,0,0,1-.36-5.36,2.457,2.457,0,0,1,.158-3.642V0H-.9V-3.652a1.556,1.556,0,0,0-.309-1.063A1.175,1.175,0,0,0-2.13-5.06a1.729,1.729,0,0,0-.822.185,1.5,1.5,0,0,0-.564.518V0H-4.574V-8.379h1.058ZM4.359.113a2.459,2.459,0,0,1-1.952-.8,3.08,3.08,0,0,1-.7-2.105v-.236A3.015,3.015,0,0,1,2.428-5.1a2.265,2.265,0,0,1,1.764-.819,2.109,2.109,0,0,1,1.748.725,2.987,2.987,0,0,1,.583,1.928v.559H2.807l-.016.027A2.4,2.4,0,0,0,3.178-1.26a1.351,1.351,0,0,0,1.182.545A2.662,2.662,0,0,0,5.3-.867,2.1,2.1,0,0,0,6-1.289L6.411-.6a2.543,2.543,0,0,1-.822.508A3.274,3.274,0,0,1,4.359.113Zm-.167-5.2a1.15,1.15,0,0,0-.916.427,2.02,2.02,0,0,0-.443,1.093l.011.027H5.466v-.086a1.692,1.692,0,0,0-.312-1.047A1.126,1.126,0,0,0,4.193-5.086Zm6.543.209-.542-.032a1.212,1.212,0,0,0-.706.2,1.275,1.275,0,0,0-.443.559V0H7.986V-5.812h.945l.1.849a2.017,2.017,0,0,1,.61-.7,1.425,1.425,0,0,1,.835-.252A1.307,1.307,0,0,1,10.7-5.9a1.5,1.5,0,0,1,.177.04ZM15.49-1.563a.705.705,0,0,0-.266-.569,2.566,2.566,0,0,0-1.007-.387,4.226,4.226,0,0,1-1.576-.618A1.247,1.247,0,0,1,12.09-4.2a1.532,1.532,0,0,1,.6-1.214,2.36,2.36,0,0,1,1.566-.5,2.339,2.339,0,0,1,1.6.537,1.539,1.539,0,0,1,.585,1.251l-.011.032h-1.01a.915.915,0,0,0-.33-.682,1.181,1.181,0,0,0-.835-.306,1.2,1.2,0,0,0-.835.252.788.788,0,0,0-.277.6.637.637,0,0,0,.239.532,2.646,2.646,0,0,0,.986.344A4.165,4.165,0,0,1,16-2.718a1.287,1.287,0,0,1,.553,1.08,1.53,1.53,0,0,1-.626,1.262,2.581,2.581,0,0,1-1.635.489,2.554,2.554,0,0,1-1.751-.564,1.609,1.609,0,0,1-.607-1.316L11.94-1.8h1.01a.979.979,0,0,0,.419.824,1.621,1.621,0,0,0,.918.26,1.447,1.447,0,0,0,.884-.239A.731.731,0,0,0,15.49-1.563Z" transform="translate(-17937 1398)" fill="#1d86db"/>
    <path id="Others" d="M82.875,332.687a8.634,8.634,0,0,1-1.515-.141c-2.459-.439-4.337-2.305-6.117-4.232-1.8,1.935-3.7,3.793-6.236,4.232a6.047,6.047,0,0,1-4.973-.985,5.759,5.759,0,0,1,.041-8.328,5.944,5.944,0,0,1,4.94-.946c2.517.47,4.42,2.393,6.229,4.355,1.782-1.935,3.65-3.851,6.1-4.353h0a5.9,5.9,0,0,1,4.9.881,5.228,5.228,0,0,1,1.847,4.245,5.123,5.123,0,0,1-1.773,4.163A5.364,5.364,0,0,1,82.875,332.687Zm-6.864-5.207c1.738,1.887,3.423,3.592,5.556,3.973a4.891,4.891,0,0,0,4.021-.727,4.717,4.717,0,0,0-.062-6.69,4.7,4.7,0,0,0-3.944-.657C79.447,323.816,77.765,325.572,76.011,327.479Zm-8.53-4.228a4.186,4.186,0,0,0-2.676.84,4.689,4.689,0,0,0-.035,6.617,4.929,4.929,0,0,0,4.035.743c2.212-.383,3.92-2.08,5.67-3.973-1.774-1.929-3.485-3.689-5.678-4.1A7.191,7.191,0,0,0,67.481,323.252Z" transform="translate(-18011.773 1043.377)" fill="#1d86db" stroke="#1d86db" stroke-width="0.3"/>
    <path id="交叉_7" data-name="交叉 7" d="M0,0H18.215a4,4,0,0,1,4,4V22.216Z" transform="translate(-17908.998 1347.001)" fill="#1d86db"/>
    <path id="路径_627" data-name="路径 627" d="M172.521,268.748l-4.467,4.45a.549.549,0,0,1-.6.121.582.582,0,0,1-.186-.121l-2.5-2.494a.558.558,0,0,1,.791-.788l2.112,2.1,4.076-4.061a.569.569,0,0,1,.791,0A.555.555,0,0,1,172.521,268.748Z" transform="translate(-18061.51 1082.642)" fill="#fff"/>
  </g>
</svg>
