<svg xmlns="http://www.w3.org/2000/svg" width="100" height="64" viewBox="0 0 100 64">
  <g id="Sea-2" transform="translate(18220 -1436)">
    <g id="矩形_580" data-name="矩形 580" transform="translate(-18220 1436)" fill="#fff" stroke="#ccc" stroke-width="1">
      <rect width="100" height="64" rx="4" stroke="none"/>
      <rect x="0.5" y="0.5" width="99" height="63" rx="3.5" fill="none"/>
    </g>
    <path id="路径_639" data-name="路径 639" d="M5.543-2.15a1.284,1.284,0,0,0-.416-.973,3.465,3.465,0,0,0-1.465-.668,4.878,4.878,0,0,1-2.03-.949A1.991,1.991,0,0,1,.9-6.316a2.1,2.1,0,0,1,.785-1.67,3.038,3.038,0,0,1,2.039-.668,2.978,2.978,0,0,1,2.147.765A2.316,2.316,0,0,1,6.65-6.105l-.018.035h-1.1a1.575,1.575,0,0,0-.507-1.2,1.823,1.823,0,0,0-1.3-.475,1.777,1.777,0,0,0-1.239.393,1.316,1.316,0,0,0-.431,1.02,1.139,1.139,0,0,0,.472.929,4.35,4.35,0,0,0,1.532.653,4.35,4.35,0,0,1,1.963.984A2.143,2.143,0,0,1,6.7-2.162,1.993,1.993,0,0,1,5.886-.5,3.368,3.368,0,0,1,3.768.123,3.6,3.6,0,0,1,1.585-.568,2.108,2.108,0,0,1,.668-2.42L.68-2.455h1.1a1.434,1.434,0,0,0,.609,1.239,2.307,2.307,0,0,0,1.377.437,2.071,2.071,0,0,0,1.3-.369A1.2,1.2,0,0,0,5.543-2.15ZM11.1.123A2.682,2.682,0,0,1,8.969-.75a3.36,3.36,0,0,1-.765-2.3V-3.3a3.289,3.289,0,0,1,.788-2.259,2.471,2.471,0,0,1,1.925-.894,2.3,2.3,0,0,1,1.907.791,3.259,3.259,0,0,1,.636,2.1v.609H9.405l-.018.029a2.62,2.62,0,0,0,.422,1.55A1.474,1.474,0,0,0,11.1-.779a2.9,2.9,0,0,0,1.028-.167,2.3,2.3,0,0,0,.759-.46l.451.75a2.774,2.774,0,0,1-.9.554A3.571,3.571,0,0,1,11.1.123Zm-.182-5.672a1.255,1.255,0,0,0-1,.466,2.2,2.2,0,0,0-.483,1.192l.012.029h2.859v-.094a1.846,1.846,0,0,0-.34-1.143A1.228,1.228,0,0,0,10.917-5.549ZM18.952,0q-.059-.287-.091-.507a3.72,3.72,0,0,1-.038-.442,2.691,2.691,0,0,1-.841.765,2.15,2.15,0,0,1-1.116.308,2.072,2.072,0,0,1-1.509-.507,1.864,1.864,0,0,1-.519-1.4A1.637,1.637,0,0,1,15.574-3.2a3.434,3.434,0,0,1,2-.513h1.254v-.627a1.163,1.163,0,0,0-.34-.882,1.334,1.334,0,0,0-.961-.325,1.394,1.394,0,0,0-.908.281.844.844,0,0,0-.346.674l-1.1.012-.012-.035a1.517,1.517,0,0,1,.647-1.266,2.683,2.683,0,0,1,1.778-.574,2.618,2.618,0,0,1,1.734.548,1.941,1.941,0,0,1,.656,1.579v3.053a5.942,5.942,0,0,0,.035.656A3.374,3.374,0,0,0,20.141,0ZM17.036-.844a2.054,2.054,0,0,0,1.131-.322,1.532,1.532,0,0,0,.656-.738V-2.936H17.528a1.68,1.68,0,0,0-1.116.352,1.051,1.051,0,0,0-.419.826.869.869,0,0,0,.264.668A1.1,1.1,0,0,0,17.036-.844Z" transform="translate(-18180 1487)" fill="#666"/>
    <g id="Sea-1" transform="translate(-18181.348 1448)">
      <path id="路径_598" data-name="路径 598" d="M87.363,84.888a5.851,5.851,0,0,1-2.656-.7,6.25,6.25,0,0,0-2.223-.677l2.3-4.934a1.458,1.458,0,0,0-.623-1.889l-.842-.48V68.942a.506.506,0,0,0-.516-.5H79.81V65.717a.506.506,0,0,0-.516-.5H76.869V64.129a.516.516,0,0,0-1.032,0v1.092H73.411a.506.506,0,0,0-.516.5v2.729H69.9a.506.506,0,0,0-.516.5v7.244l-.8.451a1.459,1.459,0,0,0-.594,1.964l2.622,4.91a6.2,6.2,0,0,0-2.065.61,7.39,7.39,0,0,1-3.26.763.5.5,0,1,0,0,.992,8.4,8.4,0,0,0,3.682-.85,4.792,4.792,0,0,1,1.953-.535,6.714,6.714,0,0,1,2.409.635,8.009,8.009,0,0,0,3,.747,9.331,9.331,0,0,0,3.114-.725,8.32,8.32,0,0,1,2.707-.654,4.828,4.828,0,0,1,2.114.594,6.9,6.9,0,0,0,3.1.792.5.5,0,1,0,0-.992ZM73.927,66.213h4.851v2.233H73.927Zm-3.509,3.225H82.287v6.185L76.627,72.4a.534.534,0,0,0-.524,0L70.418,75.6Zm8.667,14.78a8.42,8.42,0,0,1-2.754.663,7.091,7.091,0,0,1-2.6-.672,10.77,10.77,0,0,0-1.911-.621l-2.905-5.441a.486.486,0,0,1,.2-.655l6.676-3.766v5.784a.516.516,0,0,0,1.032,0V73.66l6.818,3.885a.486.486,0,0,1,.208.63l-2.515,5.4A12.57,12.57,0,0,0,79.084,84.218Z" transform="translate(-64.773 -63.633)" fill="#666"/>
      <path id="路径_599" data-name="路径 599" d="M321.812,343.74H320.16a.516.516,0,0,0,0,1.032h1.651a.516.516,0,0,0,0-1.032Z" transform="translate(-313.07 -336.807)" fill="#666"/>
      <path id="路径_600" data-name="路径 600" d="M321.812,343.74H320.16a.516.516,0,0,0,0,1.032h1.651a.516.516,0,0,0,0-1.032Z" transform="translate(-305.486 -336.807)" fill="#666"/>
    </g>
  </g>
</svg>
