<svg xmlns="http://www.w3.org/2000/svg" width="100.217" height="64" viewBox="0 0 100.217 64">
  <g id="Sea-1" transform="translate(18705 -4883)">
    <g id="矩形_599" data-name="矩形 599" transform="translate(-18705 4883)" fill="#fff" stroke="#1d86db" stroke-width="1">
      <rect width="100" height="64" rx="4" stroke="none"/>
      <rect x="0.5" y="0.5" width="99" height="63" rx="3.5" fill="none"/>
    </g>
    <path id="路径_644" data-name="路径 644" d="M-9.15-5.244A9.676,9.676,0,0,0-11.118-6.4l-.492.612A9.631,9.631,0,0,1-9.654-4.548ZM-10.482.72C-9.966-.4-9.366-1.908-8.922-3.156l-.684-.5A37.457,37.457,0,0,1-11.262.228Zm-.492-9.984A10.081,10.081,0,0,1-8.922-7.992l.528-.684a10.173,10.173,0,0,0-2.076-1.2ZM-.93-7.872v-.816H-6.414c.156-.372.312-.756.444-1.14l-.876-.216a9.968,9.968,0,0,1-2.016,3.7,5.066,5.066,0,0,1,.78.492A10.61,10.61,0,0,0-6.8-7.872ZM-5.778-3.1A8.9,8.9,0,0,1-4.362-1.608l.552-.372A7.861,7.861,0,0,0-5.262-3.42ZM-7.05-1.608c.084-.552.18-1.188.264-1.848h4.332c-.048.768-.108,1.368-.168,1.848ZM-2.334-5.94c-.024.624-.048,1.164-.084,1.668h-1.7l.5-.348A6.787,6.787,0,0,0-4.974-5.94l-.492.324a6.293,6.293,0,0,1,1.32,1.344h-2.52c.072-.564.144-1.128.216-1.668Zm1.7,2.484v-.816h-.948c.024-.6.06-1.272.1-2.028,0-.108.012-.42.012-.42H-7.206c-.072.744-.18,1.6-.288,2.448H-8.718v.816h1.1c-.132.984-.288,1.932-.432,2.64h5.3a1.63,1.63,0,0,1-.276.732c-.108.144-.228.168-.444.168s-.78-.012-1.392-.06A2.2,2.2,0,0,1-4.626.78,11.033,11.033,0,0,0-3.114.8a1.045,1.045,0,0,0,.828-.42,2.719,2.719,0,0,0,.408-1.2h.912v-.792h-.8c.048-.492.1-1.1.156-1.848ZM10.722-9.288h-6v.84h6ZM4.674-1.464c.36-.144.876-.192,5.34-.588.192.336.36.648.48.912l.78-.42c-.456-.9-1.416-2.448-2.16-3.612l-.732.336c.4.612.828,1.332,1.212,2.016l-3.936.3a19.392,19.392,0,0,0,1.764-3.2h4.14v-.84H3.93v.84H6.366A15.76,15.76,0,0,1,5-3.036c-.24.384-.432.636-.648.684a8.981,8.981,0,0,1,.312.888A.059.059,0,0,1,4.674-1.5Zm-.948-6.4c-.48-.408-1.452-1.068-2.136-1.524L1-8.832c.7.5,1.644,1.188,2.112,1.608ZM3.2-5.868H.69v.828H2.334v3.792A6.135,6.135,0,0,0,.642.144l.612.828c.588-.792,1.188-1.5,1.584-1.5.276,0,.684.384,1.164.684a6.051,6.051,0,0,0,3.3.66C8.6.816,10.626.744,11.43.7a3.686,3.686,0,0,1,.288-.984,42.911,42.911,0,0,1-4.392.24A5.79,5.79,0,0,1,4.194-.636c-.468-.276-.732-.528-1-.648Z" transform="translate(-18655 4935)" fill="#1d86db"/>
    <path id="路径_598" data-name="路径 598" d="M87.363,84.888a5.851,5.851,0,0,1-2.656-.7,6.25,6.25,0,0,0-2.223-.677l2.3-4.934a1.458,1.458,0,0,0-.623-1.889l-.842-.48V68.942a.506.506,0,0,0-.516-.5H79.81V65.717a.506.506,0,0,0-.516-.5H76.869V64.129a.516.516,0,0,0-1.032,0v1.092H73.411a.506.506,0,0,0-.516.5v2.729H69.9a.506.506,0,0,0-.516.5v7.244l-.8.451a1.459,1.459,0,0,0-.594,1.964l2.622,4.91a6.2,6.2,0,0,0-2.065.61,7.39,7.39,0,0,1-3.26.763.5.5,0,1,0,0,.992,8.4,8.4,0,0,0,3.682-.85,4.792,4.792,0,0,1,1.953-.535,6.714,6.714,0,0,1,2.409.635,8.009,8.009,0,0,0,3,.747,9.331,9.331,0,0,0,3.114-.725,8.32,8.32,0,0,1,2.707-.654,4.828,4.828,0,0,1,2.114.594,6.9,6.9,0,0,0,3.1.792.5.5,0,1,0,0-.992ZM73.927,66.213h4.851v2.233H73.927Zm-3.509,3.225H82.287v6.185L76.627,72.4a.534.534,0,0,0-.524,0L70.418,75.6Zm8.667,14.78a8.42,8.42,0,0,1-2.754.663,7.091,7.091,0,0,1-2.6-.672,10.77,10.77,0,0,0-1.911-.621l-2.905-5.441a.486.486,0,0,1,.2-.655l6.676-3.766v5.784a.516.516,0,0,0,1.032,0V73.66l6.818,3.885a.486.486,0,0,1,.208.63l-2.515,5.4A12.57,12.57,0,0,0,79.084,84.218Z" transform="translate(-18731.773 4831.367)" fill="#1d86db"/>
    <path id="路径_599" data-name="路径 599" d="M321.812,343.74H320.16a.516.516,0,0,0,0,1.032h1.651a.516.516,0,0,0,0-1.032Z" transform="translate(-18980.07 4557.644)" fill="#1d86db"/>
    <path id="路径_600" data-name="路径 600" d="M321.812,343.74H320.16a.516.516,0,0,0,0,1.032h1.651a.516.516,0,0,0,0-1.032Z" transform="translate(-18972.486 4557.644)" fill="#1d86db"/>
    <g id="组_831" data-name="组 831">
      <path id="交叉_9" data-name="交叉 9" d="M0,0H18.215a4,4,0,0,1,4,4V22.216Z" transform="translate(-18626.998 4883.001)" fill="#1d86db"/>
      <path id="路径_629" data-name="路径 629" d="M172.521,268.748l-4.467,4.45a.549.549,0,0,1-.6.121.582.582,0,0,1-.186-.121l-2.5-2.494a.558.558,0,0,1,.791-.788l2.112,2.1,4.076-4.061a.569.569,0,0,1,.791,0A.555.555,0,0,1,172.521,268.748Z" transform="translate(-18779.51 4618.642)" fill="#fff"/>
    </g>
  </g>
</svg>
