<svg xmlns="http://www.w3.org/2000/svg" width="69.953" height="93.39" viewBox="0 0 69.953 93.39">
  <g id="success" transform="translate(-152.887 -119.61)">
    <path id="success-2" data-name="success" d="M34.977,69.953A34.977,34.977,0,1,1,69.953,34.977,34.977,34.977,0,0,1,34.977,69.953ZM30.1,45.264a2,2,0,0,0,1.4-.564L52.918,23.866a1.893,1.893,0,0,0,0-2.728,2.02,2.02,0,0,0-2.806,0l-20,19.463L19.842,30.615a2.02,2.02,0,0,0-2.806,0,1.893,1.893,0,0,0,0,2.732L28.7,44.7a2,2,0,0,0,1.4.564Z" transform="translate(152.887 119.61)" fill="#33a954"/>
    <ellipse id="椭圆_143" data-name="椭圆 143" cx="25" cy="3.5" rx="25" ry="3.5" transform="translate(162 197)" fill="#00350f" opacity="0.08"/>
  </g>
</svg>
